<?xml version="1.0" encoding="UTF-8" standalone="no"?>
<!DOCTYPE svg PUBLIC "-//W3C//DTD SVG 1.1//EN"
 "http://www.w3.org/Graphics/SVG/1.1/DTD/svg11.dtd">
<!-- Generated by graphviz version 11.0.0 (0)
 -->
<!-- Pages: 1 -->
<svg width="305pt" height="98pt"
 viewBox="0.00 0.00 305.00 98.00" xmlns="http://www.w3.org/2000/svg" xmlns:xlink="http://www.w3.org/1999/xlink">
<g id="graph0" class="graph" transform="scale(1 1) rotate(0) translate(4 94)">
<polygon fill="white" stroke="none" points="-4,4 -4,-94 301,-94 301,4 -4,4"/>
<!-- s, V(&quot;x&quot;), V(&quot;y&quot;) -->
<g id="node1" class="node">
<title>s, V(&quot;x&quot;), V(&quot;y&quot;)</title>
<path fill="none" stroke="black" d="M192.88,-90C192.88,-90 104.88,-90 104.88,-90 98.88,-90 92.88,-84 92.88,-78 92.88,-78 92.88,-66 92.88,-66 92.88,-60 98.88,-54 104.88,-54 104.88,-54 192.88,-54 192.88,-54 198.88,-54 204.88,-60 204.88,-66 204.88,-66 204.88,-78 204.88,-78 204.88,-84 198.88,-90 192.88,-90"/>
<text text-anchor="middle" x="148.88" y="-66.95" font-family="Times,serif" font-size="14.00">S, V(&quot;x&quot;), V(&quot;y&quot;)</text>
</g>
<!-- E(&quot;A&quot;), V(&quot;x&quot;), E(&quot;A&quot;) -->
<g id="node2" class="node">
<title>E(&quot;A&quot;), V(&quot;x&quot;), E(&quot;A&quot;)</title>
<polygon fill="none" stroke="black" points="145.75,-36 0,-36 0,0 145.75,0 145.75,-36"/>
<text text-anchor="middle" x="72.88" y="-12.95" font-family="Times,serif" font-size="14.00">E(&quot;A&quot;), V(&quot;x&quot;), E(&quot;A&quot;)</text>
</g>
<!-- s, V(&quot;x&quot;), V(&quot;y&quot;)&#45;&gt;E(&quot;A&quot;), V(&quot;x&quot;), E(&quot;A&quot;) -->
<g id="edge1" class="edge">
<title>s, V(&quot;x&quot;), V(&quot;y&quot;)&#45;&gt;E(&quot;A&quot;), V(&quot;x&quot;), E(&quot;A&quot;)</title>
<path fill="none" stroke="black" d="M123.57,-53.68C118.49,-50.21 113.08,-46.51 107.75,-42.86"/>
<polygon fill="black" stroke="black" points="109.81,-40.03 99.58,-37.27 105.86,-45.81 109.81,-40.03"/>
</g>
<!-- V(&quot;y&quot;), E(&quot;A&quot;), V(&quot;y&quot;) -->
<g id="node3" class="node">
<title>V(&quot;y&quot;), E(&quot;A&quot;), V(&quot;y&quot;)</title>
<polygon fill="none" stroke="black" points="297,-36 152.75,-36 152.75,0 297,0 297,-36"/>
<text text-anchor="middle" x="224.88" y="-12.95" font-family="Times,serif" font-size="14.00">V(&quot;y&quot;), E(&quot;A&quot;), V(&quot;y&quot;)</text>
</g>
<!-- s, V(&quot;x&quot;), V(&quot;y&quot;)&#45;&gt;V(&quot;y&quot;), E(&quot;A&quot;), V(&quot;y&quot;) -->
<g id="edge2" class="edge">
<title>s, V(&quot;x&quot;), V(&quot;y&quot;)&#45;&gt;V(&quot;y&quot;), E(&quot;A&quot;), V(&quot;y&quot;)</title>
<path fill="none" stroke="black" d="M174.18,-53.68C179.26,-50.21 184.67,-46.51 190,-42.86"/>
<polygon fill="black" stroke="black" points="191.89,-45.81 198.17,-37.27 187.94,-40.03 191.89,-45.81"/>
</g>
</g>
</svg>
