<?xml version="1.0" encoding="UTF-8" standalone="no"?>
<!DOCTYPE svg PUBLIC "-//W3C//DTD SVG 1.1//EN"
 "http://www.w3.org/Graphics/SVG/1.1/DTD/svg11.dtd">
<!-- Generated by graphviz version 11.0.0 (0)
 -->
<!-- Pages: 1 -->
<svg width="607pt" height="98pt"
 viewBox="0.00 0.00 606.62 98.00" xmlns="http://www.w3.org/2000/svg" xmlns:xlink="http://www.w3.org/1999/xlink">
<g id="graph0" class="graph" transform="scale(1 1) rotate(0) translate(4 94)">
<polygon fill="white" stroke="none" points="-4,4 -4,-94 602.62,-94 602.62,4 -4,4"/>
<!-- s, V(&quot;x&quot;), V(&quot;y&quot;) -->
<g id="node1" class="node">
<title>s, V(&quot;x&quot;), V(&quot;y&quot;)</title>
<path fill="none" stroke="black" d="M343.88,-90C343.88,-90 255.88,-90 255.88,-90 249.88,-90 243.88,-84 243.88,-78 243.88,-78 243.88,-66 243.88,-66 243.88,-60 249.88,-54 255.88,-54 255.88,-54 343.88,-54 343.88,-54 349.88,-54 355.88,-60 355.88,-66 355.88,-66 355.88,-78 355.88,-78 355.88,-84 349.88,-90 343.88,-90"/>
<text text-anchor="middle" x="299.88" y="-66.95" font-family="Times,serif" font-size="14.00">S, V(&quot;x&quot;), V(&quot;y&quot;)</text>
</g>
<!-- E(&quot;A&quot;), V(&quot;x&quot;), E(&quot;A&quot;) -->
<g id="node2" class="node">
<title>E(&quot;A&quot;), V(&quot;x&quot;), E(&quot;A&quot;)</title>
<polygon fill="none" stroke="black" points="145.75,-36 0,-36 0,0 145.75,0 145.75,-36"/>
<text text-anchor="middle" x="72.88" y="-12.95" font-family="Times,serif" font-size="14.00">E(&quot;A&quot;), V(&quot;x&quot;), E(&quot;A&quot;)</text>
</g>
<!-- s, V(&quot;x&quot;), V(&quot;y&quot;)&#45;&gt;E(&quot;A&quot;), V(&quot;x&quot;), E(&quot;A&quot;) -->
<g id="edge1" class="edge">
<title>s, V(&quot;x&quot;), V(&quot;y&quot;)&#45;&gt;E(&quot;A&quot;), V(&quot;x&quot;), E(&quot;A&quot;)</title>
<path fill="none" stroke="black" d="M243.47,-58.08C217.39,-52.1 185.87,-44.88 157.06,-38.28"/>
<polygon fill="black" stroke="black" points="158.17,-34.95 147.64,-36.13 156.61,-41.77 158.17,-34.95"/>
</g>
<!-- V(&quot;y&quot;), E(&quot;A&quot;), V(&quot;y&quot;) -->
<g id="node3" class="node">
<title>V(&quot;y&quot;), E(&quot;A&quot;), V(&quot;y&quot;)</title>
<polygon fill="none" stroke="black" points="297,-36 152.75,-36 152.75,0 297,0 297,-36"/>
<text text-anchor="middle" x="224.88" y="-12.95" font-family="Times,serif" font-size="14.00">V(&quot;y&quot;), E(&quot;A&quot;), V(&quot;y&quot;)</text>
</g>
<!-- s, V(&quot;x&quot;), V(&quot;y&quot;)&#45;&gt;V(&quot;y&quot;), E(&quot;A&quot;), V(&quot;y&quot;) -->
<g id="edge2" class="edge">
<title>s, V(&quot;x&quot;), V(&quot;y&quot;)&#45;&gt;V(&quot;y&quot;), E(&quot;A&quot;), V(&quot;y&quot;)</title>
<path fill="none" stroke="black" d="M274.9,-53.68C269.89,-50.21 264.55,-46.51 259.29,-42.86"/>
<polygon fill="black" stroke="black" points="261.45,-40.1 251.24,-37.28 257.46,-45.85 261.45,-40.1"/>
</g>
<!-- E(&quot;B&quot;), V(&quot;y&quot;), E(&quot;B&quot;) -->
<g id="node4" class="node">
<title>E(&quot;B&quot;), V(&quot;y&quot;), E(&quot;B&quot;)</title>
<polygon fill="none" stroke="black" points="448,-36 303.75,-36 303.75,0 448,0 448,-36"/>
<text text-anchor="middle" x="375.88" y="-12.95" font-family="Times,serif" font-size="14.00">E(&quot;B&quot;), V(&quot;y&quot;), E(&quot;B&quot;)</text>
</g>
<!-- s, V(&quot;x&quot;), V(&quot;y&quot;)&#45;&gt;E(&quot;B&quot;), V(&quot;y&quot;), E(&quot;B&quot;) -->
<g id="edge3" class="edge">
<title>s, V(&quot;x&quot;), V(&quot;y&quot;)&#45;&gt;E(&quot;B&quot;), V(&quot;y&quot;), E(&quot;B&quot;)</title>
<path fill="none" stroke="black" d="M325.18,-53.68C330.26,-50.21 335.67,-46.51 341,-42.86"/>
<polygon fill="black" stroke="black" points="342.89,-45.81 349.17,-37.27 338.94,-40.03 342.89,-45.81"/>
</g>
<!-- V(&quot;y&quot;), E(&quot;B&quot;), V(&quot;y&quot;) -->
<g id="node5" class="node">
<title>V(&quot;y&quot;), E(&quot;B&quot;), V(&quot;y&quot;)</title>
<polygon fill="none" stroke="black" points="598.62,-36 455.12,-36 455.12,0 598.62,0 598.62,-36"/>
<text text-anchor="middle" x="526.88" y="-12.95" font-family="Times,serif" font-size="14.00">V(&quot;y&quot;), E(&quot;B&quot;), V(&quot;y&quot;)</text>
</g>
<!-- s, V(&quot;x&quot;), V(&quot;y&quot;)&#45;&gt;V(&quot;y&quot;), E(&quot;B&quot;), V(&quot;y&quot;) -->
<g id="edge4" class="edge">
<title>s, V(&quot;x&quot;), V(&quot;y&quot;)&#45;&gt;V(&quot;y&quot;), E(&quot;B&quot;), V(&quot;y&quot;)</title>
<path fill="none" stroke="black" d="M356.28,-58.08C382.71,-52.02 414.72,-44.69 443.85,-38.02"/>
<polygon fill="black" stroke="black" points="444.41,-41.48 453.38,-35.84 442.85,-34.66 444.41,-41.48"/>
</g>
</g>
</svg>
