<?xml version="1.0" encoding="UTF-8" standalone="no"?>
<!DOCTYPE svg PUBLIC "-//W3C//DTD SVG 1.1//EN"
 "http://www.w3.org/Graphics/SVG/1.1/DTD/svg11.dtd">
<!-- Generated by graphviz version 11.0.0 (0)
 -->
<!-- Pages: 1 -->
<svg width="514pt" height="303pt"
 viewBox="0.00 0.00 513.62 303.20" xmlns="http://www.w3.org/2000/svg" xmlns:xlink="http://www.w3.org/1999/xlink">
<g id="graph0" class="graph" transform="scale(1 1) rotate(0) translate(4 299.2)">
<polygon fill="white" stroke="none" points="-4,4 -4,-299.2 509.62,-299.2 509.62,4 -4,4"/>
<!-- S, V(&quot;x&quot;), V(&quot;y&quot;) -->
<g id="node1" class="node">
<title>S, V(&quot;x&quot;), V(&quot;y&quot;)</title>
<path fill="none" stroke="black" d="M271.88,-295.2C271.88,-295.2 183.88,-295.2 183.88,-295.2 177.88,-295.2 171.88,-289.2 171.88,-283.2 171.88,-283.2 171.88,-271.2 171.88,-271.2 171.88,-265.2 177.88,-259.2 183.88,-259.2 183.88,-259.2 271.88,-259.2 271.88,-259.2 277.88,-259.2 283.88,-265.2 283.88,-271.2 283.88,-271.2 283.88,-283.2 283.88,-283.2 283.88,-289.2 277.88,-295.2 271.88,-295.2"/>
<text text-anchor="middle" x="227.88" y="-272.15" font-family="Times,serif" font-size="14.00">S, V(&quot;x&quot;), V(&quot;y&quot;)</text>
</g>
<!-- org.parser.sppf.PackedNode@dd3b207 -->
<g id="node2" class="node">
<title>org.parser.sppf.PackedNode@dd3b207</title>
<polygon fill="none" stroke="black" points="195.07,-198 180.68,-198 180.68,-183.6 195.07,-183.6 195.07,-198"/>
</g>
<!-- S, V(&quot;x&quot;), V(&quot;y&quot;)&#45;&gt;org.parser.sppf.PackedNode@dd3b207 -->
<g id="edge10" class="edge">
<title>S, V(&quot;x&quot;), V(&quot;y&quot;)&#45;&gt;org.parser.sppf.PackedNode@dd3b207</title>
<path fill="none" stroke="black" d="M219.59,-258.71C212.58,-243.93 202.61,-222.9 195.73,-208.38"/>
<polygon fill="black" stroke="black" points="199.09,-207.28 191.64,-199.74 192.76,-210.28 199.09,-207.28"/>
</g>
<!-- org.parser.sppf.PackedNode@58fdd99 -->
<g id="node8" class="node">
<title>org.parser.sppf.PackedNode@58fdd99</title>
<polygon fill="none" stroke="black" points="260.07,-241.2 245.68,-241.2 245.68,-226.8 260.07,-226.8 260.07,-241.2"/>
</g>
<!-- S, V(&quot;x&quot;), V(&quot;y&quot;)&#45;&gt;org.parser.sppf.PackedNode@58fdd99 -->
<g id="edge11" class="edge">
<title>S, V(&quot;x&quot;), V(&quot;y&quot;)&#45;&gt;org.parser.sppf.PackedNode@58fdd99</title>
<path fill="none" stroke="black" d="M238.33,-258.97C239.91,-256.36 241.54,-253.68 243.1,-251.1"/>
<polygon fill="black" stroke="black" points="245.95,-253.16 248.15,-242.79 239.97,-249.53 245.95,-253.16"/>
</g>
<!-- P, V(&quot;x&quot;), V(&quot;y&quot;) -->
<g id="node3" class="node">
<title>P, V(&quot;x&quot;), V(&quot;y&quot;)</title>
<path fill="none" stroke="black" d="M192.12,-122.4C192.12,-122.4 105.62,-122.4 105.62,-122.4 99.62,-122.4 93.62,-116.4 93.62,-110.4 93.62,-110.4 93.62,-98.4 93.62,-98.4 93.62,-92.4 99.62,-86.4 105.62,-86.4 105.62,-86.4 192.12,-86.4 192.12,-86.4 198.12,-86.4 204.12,-92.4 204.12,-98.4 204.12,-98.4 204.12,-110.4 204.12,-110.4 204.12,-116.4 198.12,-122.4 192.12,-122.4"/>
<text text-anchor="middle" x="148.88" y="-99.35" font-family="Times,serif" font-size="14.00">P, V(&quot;x&quot;), V(&quot;y&quot;)</text>
</g>
<!-- org.parser.sppf.PackedNode@dd3b207&#45;&gt;P, V(&quot;x&quot;), V(&quot;y&quot;) -->
<g id="edge5" class="edge">
<title>org.parser.sppf.PackedNode@dd3b207&#45;&gt;P, V(&quot;x&quot;), V(&quot;y&quot;)</title>
<path fill="none" stroke="black" d="M184.81,-183.18C179.88,-172.49 169.88,-150.86 161.68,-133.11"/>
<polygon fill="black" stroke="black" points="164.87,-131.68 157.5,-124.07 158.52,-134.62 164.87,-131.68"/>
</g>
<!-- org.parser.sppf.PackedNode@551bdc27 -->
<g id="node4" class="node">
<title>org.parser.sppf.PackedNode@551bdc27</title>
<polygon fill="none" stroke="black" points="156.07,-68.4 141.68,-68.4 141.68,-54 156.07,-54 156.07,-68.4"/>
</g>
<!-- P, V(&quot;x&quot;), V(&quot;y&quot;)&#45;&gt;org.parser.sppf.PackedNode@551bdc27 -->
<g id="edge4" class="edge">
<title>P, V(&quot;x&quot;), V(&quot;y&quot;)&#45;&gt;org.parser.sppf.PackedNode@551bdc27</title>
<path fill="none" stroke="black" d="M148.88,-86.17C148.88,-84.14 148.88,-82.07 148.88,-80.04"/>
<polygon fill="black" stroke="black" points="152.38,-80.21 148.88,-70.21 145.38,-80.21 152.38,-80.21"/>
</g>
<!-- E(&quot;A&quot;), V(&quot;x&quot;), E(&quot;A&quot;) -->
<g id="node5" class="node">
<title>E(&quot;A&quot;), V(&quot;x&quot;), E(&quot;A&quot;)</title>
<polygon fill="none" stroke="black" points="145.75,-36 0,-36 0,0 145.75,0 145.75,-36"/>
<text text-anchor="middle" x="72.88" y="-12.95" font-family="Times,serif" font-size="14.00">E(&quot;A&quot;), V(&quot;x&quot;), E(&quot;A&quot;)</text>
</g>
<!-- org.parser.sppf.PackedNode@551bdc27&#45;&gt;E(&quot;A&quot;), V(&quot;x&quot;), E(&quot;A&quot;) -->
<g id="edge1" class="edge">
<title>org.parser.sppf.PackedNode@551bdc27&#45;&gt;E(&quot;A&quot;), V(&quot;x&quot;), E(&quot;A&quot;)</title>
<path fill="none" stroke="black" d="M141.31,-56.1C134.95,-52.65 125.3,-47.42 115.23,-41.96"/>
<polygon fill="black" stroke="black" points="116.93,-38.9 106.47,-37.21 113.59,-45.05 116.93,-38.9"/>
</g>
<!-- V(&quot;y&quot;), E(&quot;A&quot;), V(&quot;y&quot;) -->
<g id="node6" class="node">
<title>V(&quot;y&quot;), E(&quot;A&quot;), V(&quot;y&quot;)</title>
<polygon fill="none" stroke="black" points="297,-36 152.75,-36 152.75,0 297,0 297,-36"/>
<text text-anchor="middle" x="224.88" y="-12.95" font-family="Times,serif" font-size="14.00">V(&quot;y&quot;), E(&quot;A&quot;), V(&quot;y&quot;)</text>
</g>
<!-- org.parser.sppf.PackedNode@551bdc27&#45;&gt;V(&quot;y&quot;), E(&quot;A&quot;), V(&quot;y&quot;) -->
<g id="edge2" class="edge">
<title>org.parser.sppf.PackedNode@551bdc27&#45;&gt;V(&quot;y&quot;), E(&quot;A&quot;), V(&quot;y&quot;)</title>
<path fill="none" stroke="black" d="M156.44,-56.1C162.8,-52.65 172.45,-47.42 182.52,-41.96"/>
<polygon fill="black" stroke="black" points="184.16,-45.05 191.28,-37.21 180.82,-38.9 184.16,-45.05"/>
</g>
<!-- org.parser.sppf.PackedNode@6b1274d2 -->
<g id="node7" class="node">
<title>org.parser.sppf.PackedNode@6b1274d2</title>
<polygon fill="none" stroke="black" points="286.07,-154.8 271.68,-154.8 271.68,-140.4 286.07,-140.4 286.07,-154.8"/>
</g>
<!-- org.parser.sppf.PackedNode@6b1274d2&#45;&gt;P, V(&quot;x&quot;), V(&quot;y&quot;) -->
<g id="edge3" class="edge">
<title>org.parser.sppf.PackedNode@6b1274d2&#45;&gt;P, V(&quot;x&quot;), V(&quot;y&quot;)</title>
<path fill="none" stroke="black" d="M271.51,-144.27C260.25,-140.7 237.62,-133.53 214.84,-126.31"/>
<polygon fill="black" stroke="black" points="216.09,-123.03 205.5,-123.34 213.97,-129.7 216.09,-123.03"/>
</g>
<!-- E(&quot;B&quot;), V(&quot;y&quot;), E(&quot;B&quot;) -->
<g id="node10" class="node">
<title>E(&quot;B&quot;), V(&quot;y&quot;), E(&quot;B&quot;)</title>
<polygon fill="none" stroke="black" points="355,-122.4 210.75,-122.4 210.75,-86.4 355,-86.4 355,-122.4"/>
<text text-anchor="middle" x="282.88" y="-99.35" font-family="Times,serif" font-size="14.00">E(&quot;B&quot;), V(&quot;y&quot;), E(&quot;B&quot;)</text>
</g>
<!-- org.parser.sppf.PackedNode@6b1274d2&#45;&gt;E(&quot;B&quot;), V(&quot;y&quot;), E(&quot;B&quot;) -->
<g id="edge6" class="edge">
<title>org.parser.sppf.PackedNode@6b1274d2&#45;&gt;E(&quot;B&quot;), V(&quot;y&quot;), E(&quot;B&quot;)</title>
<path fill="none" stroke="black" d="M279.5,-140.16C279.68,-138.32 279.89,-136.19 280.11,-133.91"/>
<polygon fill="black" stroke="black" points="283.57,-134.43 281.06,-124.14 276.61,-133.76 283.57,-134.43"/>
</g>
<!-- V(&quot;y&quot;), E(&quot;B&quot;), V(&quot;y&quot;) -->
<g id="node11" class="node">
<title>V(&quot;y&quot;), E(&quot;B&quot;), V(&quot;y&quot;)</title>
<polygon fill="none" stroke="black" points="505.62,-122.4 362.12,-122.4 362.12,-86.4 505.62,-86.4 505.62,-122.4"/>
<text text-anchor="middle" x="433.88" y="-99.35" font-family="Times,serif" font-size="14.00">V(&quot;y&quot;), E(&quot;B&quot;), V(&quot;y&quot;)</text>
</g>
<!-- org.parser.sppf.PackedNode@6b1274d2&#45;&gt;V(&quot;y&quot;), E(&quot;B&quot;), V(&quot;y&quot;) -->
<g id="edge7" class="edge">
<title>org.parser.sppf.PackedNode@6b1274d2&#45;&gt;V(&quot;y&quot;), E(&quot;B&quot;), V(&quot;y&quot;)</title>
<path fill="none" stroke="black" d="M286.35,-144.61C299.6,-141.09 328.5,-133.41 357.25,-125.77"/>
<polygon fill="black" stroke="black" points="358,-129.19 366.77,-123.24 356.2,-122.42 358,-129.19"/>
</g>
<!-- P B y, V(&quot;x&quot;), V(&quot;y&quot;) -->
<g id="node9" class="node">
<title>P B y, V(&quot;x&quot;), V(&quot;y&quot;)</title>
<path fill="none" stroke="black" d="M330.75,-208.8C330.75,-208.8 221,-208.8 221,-208.8 215,-208.8 209,-202.8 209,-196.8 209,-196.8 209,-184.8 209,-184.8 209,-178.8 215,-172.8 221,-172.8 221,-172.8 330.75,-172.8 330.75,-172.8 336.75,-172.8 342.75,-178.8 342.75,-184.8 342.75,-184.8 342.75,-196.8 342.75,-196.8 342.75,-202.8 336.75,-208.8 330.75,-208.8"/>
<text text-anchor="middle" x="275.88" y="-185.75" font-family="Times,serif" font-size="14.00">P B y, V(&quot;x&quot;), V(&quot;y&quot;)</text>
</g>
<!-- org.parser.sppf.PackedNode@58fdd99&#45;&gt;P B y, V(&quot;x&quot;), V(&quot;y&quot;) -->
<g id="edge9" class="edge">
<title>org.parser.sppf.PackedNode@58fdd99&#45;&gt;P B y, V(&quot;x&quot;), V(&quot;y&quot;)</title>
<path fill="none" stroke="black" d="M256.47,-226.56C257.7,-224.36 259.17,-221.73 260.73,-218.92"/>
<polygon fill="black" stroke="black" points="263.7,-220.79 265.52,-210.36 257.59,-217.38 263.7,-220.79"/>
</g>
<!-- P B y, V(&quot;x&quot;), V(&quot;y&quot;)&#45;&gt;org.parser.sppf.PackedNode@6b1274d2 -->
<g id="edge8" class="edge">
<title>P B y, V(&quot;x&quot;), V(&quot;y&quot;)&#45;&gt;org.parser.sppf.PackedNode@6b1274d2</title>
<path fill="none" stroke="black" d="M277.13,-172.57C277.28,-170.54 277.43,-168.47 277.58,-166.44"/>
<polygon fill="black" stroke="black" points="281.06,-166.84 278.29,-156.61 274.07,-166.33 281.06,-166.84"/>
</g>
</g>
</svg>
