<?xml version="1.0" encoding="UTF-8" standalone="no"?>
<!DOCTYPE svg PUBLIC "-//W3C//DTD SVG 1.1//EN"
 "http://www.w3.org/Graphics/SVG/1.1/DTD/svg11.dtd">
<!-- Generated by graphviz version 11.0.0 (0)
 -->
<!-- Pages: 1 -->
<svg width="446pt" height="390pt"
 viewBox="0.00 0.00 445.62 389.60" xmlns="http://www.w3.org/2000/svg" xmlns:xlink="http://www.w3.org/1999/xlink">
<g id="graph0" class="graph" transform="scale(1 1) rotate(0) translate(4 385.6)">
<polygon fill="white" stroke="none" points="-4,4 -4,-385.6 441.62,-385.6 441.62,4 -4,4"/>
<!-- S, V(&quot;x&quot;), V(&quot;y&quot;) -->
<g id="node1" class="node">
<title>S, V(&quot;x&quot;), V(&quot;y&quot;)</title>
<path fill="none" stroke="black" d="M232.88,-381.6C232.88,-381.6 144.88,-381.6 144.88,-381.6 138.88,-381.6 132.88,-375.6 132.88,-369.6 132.88,-369.6 132.88,-357.6 132.88,-357.6 132.88,-351.6 138.88,-345.6 144.88,-345.6 144.88,-345.6 232.88,-345.6 232.88,-345.6 238.88,-345.6 244.88,-351.6 244.88,-357.6 244.88,-357.6 244.88,-369.6 244.88,-369.6 244.88,-375.6 238.88,-381.6 232.88,-381.6"/>
<text text-anchor="middle" x="188.88" y="-358.55" font-family="Times,serif" font-size="14.00">S, V(&quot;x&quot;), V(&quot;y&quot;)</text>
</g>
<!-- org.parser.sppf.PackedNode@dd3b207 -->
<g id="node2" class="node">
<title>org.parser.sppf.PackedNode@dd3b207</title>
<polygon fill="none" stroke="black" points="156.07,-284.4 141.68,-284.4 141.68,-270 156.07,-270 156.07,-284.4"/>
</g>
<!-- S, V(&quot;x&quot;), V(&quot;y&quot;)&#45;&gt;org.parser.sppf.PackedNode@dd3b207 -->
<g id="edge12" class="edge">
<title>S, V(&quot;x&quot;), V(&quot;y&quot;)&#45;&gt;org.parser.sppf.PackedNode@dd3b207</title>
<path fill="none" stroke="black" d="M180.59,-345.11C173.58,-330.33 163.61,-309.3 156.73,-294.78"/>
<polygon fill="black" stroke="black" points="160.09,-293.68 152.64,-286.14 153.76,-296.68 160.09,-293.68"/>
</g>
<!-- org.parser.sppf.PackedNode@58fdd99 -->
<g id="node7" class="node">
<title>org.parser.sppf.PackedNode@58fdd99</title>
<polygon fill="none" stroke="black" points="220.07,-327.6 205.68,-327.6 205.68,-313.2 220.07,-313.2 220.07,-327.6"/>
</g>
<!-- S, V(&quot;x&quot;), V(&quot;y&quot;)&#45;&gt;org.parser.sppf.PackedNode@58fdd99 -->
<g id="edge13" class="edge">
<title>S, V(&quot;x&quot;), V(&quot;y&quot;)&#45;&gt;org.parser.sppf.PackedNode@58fdd99</title>
<path fill="none" stroke="black" d="M198.91,-345.37C200.38,-342.86 201.88,-340.28 203.33,-337.79"/>
<polygon fill="black" stroke="black" points="206.32,-339.61 208.33,-329.21 200.27,-336.09 206.32,-339.61"/>
</g>
<!-- P, V(&quot;x&quot;), V(&quot;y&quot;) -->
<g id="node3" class="node">
<title>P, V(&quot;x&quot;), V(&quot;y&quot;)</title>
<path fill="none" stroke="black" d="M192.12,-122.4C192.12,-122.4 105.62,-122.4 105.62,-122.4 99.62,-122.4 93.62,-116.4 93.62,-110.4 93.62,-110.4 93.62,-98.4 93.62,-98.4 93.62,-92.4 99.62,-86.4 105.62,-86.4 105.62,-86.4 192.12,-86.4 192.12,-86.4 198.12,-86.4 204.12,-92.4 204.12,-98.4 204.12,-98.4 204.12,-110.4 204.12,-110.4 204.12,-116.4 198.12,-122.4 192.12,-122.4"/>
<text text-anchor="middle" x="148.88" y="-99.35" font-family="Times,serif" font-size="14.00">P, V(&quot;x&quot;), V(&quot;y&quot;)</text>
</g>
<!-- org.parser.sppf.PackedNode@dd3b207&#45;&gt;P, V(&quot;x&quot;), V(&quot;y&quot;) -->
<g id="edge4" class="edge">
<title>org.parser.sppf.PackedNode@dd3b207&#45;&gt;P, V(&quot;x&quot;), V(&quot;y&quot;)</title>
<path fill="none" stroke="black" d="M148.88,-269.71C148.88,-247.74 148.88,-175.23 148.88,-134.26"/>
<polygon fill="black" stroke="black" points="152.38,-134.4 148.88,-124.4 145.38,-134.4 152.38,-134.4"/>
</g>
<!-- org.parser.sppf.PackedNode@551bdc27 -->
<g id="node4" class="node">
<title>org.parser.sppf.PackedNode@551bdc27</title>
<polygon fill="none" stroke="black" points="156.07,-68.4 141.68,-68.4 141.68,-54 156.07,-54 156.07,-68.4"/>
</g>
<!-- P, V(&quot;x&quot;), V(&quot;y&quot;)&#45;&gt;org.parser.sppf.PackedNode@551bdc27 -->
<g id="edge3" class="edge">
<title>P, V(&quot;x&quot;), V(&quot;y&quot;)&#45;&gt;org.parser.sppf.PackedNode@551bdc27</title>
<path fill="none" stroke="black" d="M148.88,-86.17C148.88,-84.14 148.88,-82.07 148.88,-80.04"/>
<polygon fill="black" stroke="black" points="152.38,-80.21 148.88,-70.21 145.38,-80.21 152.38,-80.21"/>
</g>
<!-- E(&quot;A&quot;), V(&quot;x&quot;), E(&quot;A&quot;) -->
<g id="node5" class="node">
<title>E(&quot;A&quot;), V(&quot;x&quot;), E(&quot;A&quot;)</title>
<polygon fill="none" stroke="black" points="145.75,-36 0,-36 0,0 145.75,0 145.75,-36"/>
<text text-anchor="middle" x="72.88" y="-12.95" font-family="Times,serif" font-size="14.00">E(&quot;A&quot;), V(&quot;x&quot;), E(&quot;A&quot;)</text>
</g>
<!-- org.parser.sppf.PackedNode@551bdc27&#45;&gt;E(&quot;A&quot;), V(&quot;x&quot;), E(&quot;A&quot;) -->
<g id="edge1" class="edge">
<title>org.parser.sppf.PackedNode@551bdc27&#45;&gt;E(&quot;A&quot;), V(&quot;x&quot;), E(&quot;A&quot;)</title>
<path fill="none" stroke="black" d="M141.31,-56.1C134.95,-52.65 125.3,-47.42 115.23,-41.96"/>
<polygon fill="black" stroke="black" points="116.93,-38.9 106.47,-37.21 113.59,-45.05 116.93,-38.9"/>
</g>
<!-- V(&quot;y&quot;), E(&quot;A&quot;), V(&quot;y&quot;) -->
<g id="node6" class="node">
<title>V(&quot;y&quot;), E(&quot;A&quot;), V(&quot;y&quot;)</title>
<polygon fill="none" stroke="black" points="297,-36 152.75,-36 152.75,0 297,0 297,-36"/>
<text text-anchor="middle" x="224.88" y="-12.95" font-family="Times,serif" font-size="14.00">V(&quot;y&quot;), E(&quot;A&quot;), V(&quot;y&quot;)</text>
</g>
<!-- org.parser.sppf.PackedNode@551bdc27&#45;&gt;V(&quot;y&quot;), E(&quot;A&quot;), V(&quot;y&quot;) -->
<g id="edge2" class="edge">
<title>org.parser.sppf.PackedNode@551bdc27&#45;&gt;V(&quot;y&quot;), E(&quot;A&quot;), V(&quot;y&quot;)</title>
<path fill="none" stroke="black" d="M156.44,-56.1C162.8,-52.65 172.45,-47.42 182.52,-41.96"/>
<polygon fill="black" stroke="black" points="184.16,-45.05 191.28,-37.21 180.82,-38.9 184.16,-45.05"/>
</g>
<!-- P b y, V(&quot;x&quot;), V(&quot;y&quot;) -->
<g id="node8" class="node">
<title>P b y, V(&quot;x&quot;), V(&quot;y&quot;)</title>
<path fill="none" stroke="black" d="M282.62,-295.2C282.62,-295.2 175.12,-295.2 175.12,-295.2 169.12,-295.2 163.12,-289.2 163.12,-283.2 163.12,-283.2 163.12,-271.2 163.12,-271.2 163.12,-265.2 169.12,-259.2 175.12,-259.2 175.12,-259.2 282.62,-259.2 282.62,-259.2 288.62,-259.2 294.62,-265.2 294.62,-271.2 294.62,-271.2 294.62,-283.2 294.62,-283.2 294.62,-289.2 288.62,-295.2 282.62,-295.2"/>
<text text-anchor="middle" x="228.88" y="-272.15" font-family="Times,serif" font-size="14.00">P b y, V(&quot;x&quot;), V(&quot;y&quot;)</text>
</g>
<!-- org.parser.sppf.PackedNode@58fdd99&#45;&gt;P b y, V(&quot;x&quot;), V(&quot;y&quot;) -->
<g id="edge11" class="edge">
<title>org.parser.sppf.PackedNode@58fdd99&#45;&gt;P b y, V(&quot;x&quot;), V(&quot;y&quot;)</title>
<path fill="none" stroke="black" d="M215.38,-312.96C216.15,-310.98 217.05,-308.65 218.02,-306.16"/>
<polygon fill="black" stroke="black" points="221.28,-307.43 221.63,-296.84 214.75,-304.9 221.28,-307.43"/>
</g>
<!-- org.parser.sppf.PackedNode@6b1274d2 -->
<g id="node9" class="node">
<title>org.parser.sppf.PackedNode@6b1274d2</title>
<polygon fill="none" stroke="black" points="236.07,-241.2 221.68,-241.2 221.68,-226.8 236.07,-226.8 236.07,-241.2"/>
</g>
<!-- P b y, V(&quot;x&quot;), V(&quot;y&quot;)&#45;&gt;org.parser.sppf.PackedNode@6b1274d2 -->
<g id="edge10" class="edge">
<title>P b y, V(&quot;x&quot;), V(&quot;y&quot;)&#45;&gt;org.parser.sppf.PackedNode@6b1274d2</title>
<path fill="none" stroke="black" d="M228.88,-258.97C228.88,-256.94 228.88,-254.87 228.88,-252.84"/>
<polygon fill="black" stroke="black" points="232.38,-253.01 228.88,-243.01 225.38,-253.01 232.38,-253.01"/>
</g>
<!-- P b, V(&quot;x&quot;), E(&quot;B&quot;) -->
<g id="node10" class="node">
<title>P b, V(&quot;x&quot;), E(&quot;B&quot;)</title>
<path fill="none" stroke="black" d="M275.5,-208.8C275.5,-208.8 176.25,-208.8 176.25,-208.8 170.25,-208.8 164.25,-202.8 164.25,-196.8 164.25,-196.8 164.25,-184.8 164.25,-184.8 164.25,-178.8 170.25,-172.8 176.25,-172.8 176.25,-172.8 275.5,-172.8 275.5,-172.8 281.5,-172.8 287.5,-178.8 287.5,-184.8 287.5,-184.8 287.5,-196.8 287.5,-196.8 287.5,-202.8 281.5,-208.8 275.5,-208.8"/>
<text text-anchor="middle" x="225.88" y="-185.75" font-family="Times,serif" font-size="14.00">P b, V(&quot;x&quot;), E(&quot;B&quot;)</text>
</g>
<!-- org.parser.sppf.PackedNode@6b1274d2&#45;&gt;P b, V(&quot;x&quot;), E(&quot;B&quot;) -->
<g id="edge8" class="edge">
<title>org.parser.sppf.PackedNode@6b1274d2&#45;&gt;P b, V(&quot;x&quot;), E(&quot;B&quot;)</title>
<path fill="none" stroke="black" d="M228.41,-226.56C228.27,-224.72 228.12,-222.59 227.95,-220.31"/>
<polygon fill="black" stroke="black" points="231.46,-220.26 227.24,-210.54 224.48,-220.77 231.46,-220.26"/>
</g>
<!-- V(&quot;y&quot;), E(&quot;B&quot;), V(&quot;y&quot;) -->
<g id="node13" class="node">
<title>V(&quot;y&quot;), E(&quot;B&quot;), V(&quot;y&quot;)</title>
<polygon fill="none" stroke="black" points="437.62,-208.8 294.12,-208.8 294.12,-172.8 437.62,-172.8 437.62,-208.8"/>
<text text-anchor="middle" x="365.88" y="-185.75" font-family="Times,serif" font-size="14.00">V(&quot;y&quot;), E(&quot;B&quot;), V(&quot;y&quot;)</text>
</g>
<!-- org.parser.sppf.PackedNode@6b1274d2&#45;&gt;V(&quot;y&quot;), E(&quot;B&quot;), V(&quot;y&quot;) -->
<g id="edge9" class="edge">
<title>org.parser.sppf.PackedNode@6b1274d2&#45;&gt;V(&quot;y&quot;), E(&quot;B&quot;), V(&quot;y&quot;)</title>
<path fill="none" stroke="black" d="M236.24,-230.78C248.1,-227.22 272.6,-219.85 297.14,-212.47"/>
<polygon fill="black" stroke="black" points="297.97,-215.87 306.54,-209.64 295.96,-209.17 297.97,-215.87"/>
</g>
<!-- org.parser.sppf.PackedNode@7bc1a03d -->
<g id="node11" class="node">
<title>org.parser.sppf.PackedNode@7bc1a03d</title>
<polygon fill="none" stroke="black" points="233.07,-154.8 218.68,-154.8 218.68,-140.4 233.07,-140.4 233.07,-154.8"/>
</g>
<!-- P b, V(&quot;x&quot;), E(&quot;B&quot;)&#45;&gt;org.parser.sppf.PackedNode@7bc1a03d -->
<g id="edge7" class="edge">
<title>P b, V(&quot;x&quot;), E(&quot;B&quot;)&#45;&gt;org.parser.sppf.PackedNode@7bc1a03d</title>
<path fill="none" stroke="black" d="M225.88,-172.57C225.88,-170.54 225.88,-168.47 225.88,-166.44"/>
<polygon fill="black" stroke="black" points="229.38,-166.61 225.88,-156.61 222.38,-166.61 229.38,-166.61"/>
</g>
<!-- org.parser.sppf.PackedNode@7bc1a03d&#45;&gt;P, V(&quot;x&quot;), V(&quot;y&quot;) -->
<g id="edge5" class="edge">
<title>org.parser.sppf.PackedNode@7bc1a03d&#45;&gt;P, V(&quot;x&quot;), V(&quot;y&quot;)</title>
<path fill="none" stroke="black" d="M218.21,-142.5C211.7,-139.01 201.78,-133.71 191.47,-128.19"/>
<polygon fill="black" stroke="black" points="193.36,-125.24 182.9,-123.6 190.06,-131.41 193.36,-125.24"/>
</g>
<!-- E(&quot;B&quot;), V(&quot;y&quot;), E(&quot;B&quot;) -->
<g id="node12" class="node">
<title>E(&quot;B&quot;), V(&quot;y&quot;), E(&quot;B&quot;)</title>
<polygon fill="none" stroke="black" points="355,-122.4 210.75,-122.4 210.75,-86.4 355,-86.4 355,-122.4"/>
<text text-anchor="middle" x="282.88" y="-99.35" font-family="Times,serif" font-size="14.00">E(&quot;B&quot;), V(&quot;y&quot;), E(&quot;B&quot;)</text>
</g>
<!-- org.parser.sppf.PackedNode@7bc1a03d&#45;&gt;E(&quot;B&quot;), V(&quot;y&quot;), E(&quot;B&quot;) -->
<g id="edge6" class="edge">
<title>org.parser.sppf.PackedNode@7bc1a03d&#45;&gt;E(&quot;B&quot;), V(&quot;y&quot;), E(&quot;B&quot;)</title>
<path fill="none" stroke="black" d="M233.33,-141.21C237.71,-138.05 243.58,-133.8 249.76,-129.34"/>
<polygon fill="black" stroke="black" points="251.6,-132.33 257.65,-123.63 247.5,-126.65 251.6,-132.33"/>
</g>
</g>
</svg>
