<?xml version="1.0" encoding="UTF-8" standalone="no"?>
<!DOCTYPE svg PUBLIC "-//W3C//DTD SVG 1.1//EN"
 "http://www.w3.org/Graphics/SVG/1.1/DTD/svg11.dtd">
<!-- Generated by graphviz version 11.0.0 (0)
 -->
<!-- Pages: 1 -->
<svg width="162pt" height="79pt"
 viewBox="0.00 0.00 161.75 78.50" xmlns="http://www.w3.org/2000/svg" xmlns:xlink="http://www.w3.org/1999/xlink">
<g id="graph0" class="graph" transform="scale(1 1) rotate(0) translate(4 74.5)">
<polygon fill="white" stroke="none" points="-4,4 -4,-74.5 157.75,-74.5 157.75,4 -4,4"/>
<!-- x -->
<g id="node1" class="node">
<title>x</title>
<ellipse fill="none" stroke="black" cx="27" cy="-18" rx="27" ry="18"/>
<text text-anchor="middle" x="27" y="-12.95" font-family="Times,serif" font-size="14.00">x</text>
</g>
<!-- y -->
<g id="node2" class="node">
<title>y</title>
<ellipse fill="none" stroke="black" cx="126.75" cy="-18" rx="27" ry="18"/>
<text text-anchor="middle" x="126.75" y="-12.95" font-family="Times,serif" font-size="14.00">y</text>
</g>
<!-- x&#45;&gt;y -->
<g id="edge1" class="edge">
<title>x&#45;&gt;y</title>
<path fill="none" stroke="black" d="M54.45,-18C64.78,-18 76.8,-18 88.01,-18"/>
<polygon fill="black" stroke="black" points="87.76,-21.5 97.76,-18 87.76,-14.5 87.76,-21.5"/>
<text text-anchor="middle" x="76.88" y="-21.2" font-family="Times,serif" font-size="14.00">A</text>
</g>
<!-- y&#45;&gt;y -->
<g id="edge2" class="edge">
<title>y&#45;&gt;y</title>
<path fill="none" stroke="black" d="M117.85,-35.41C116.18,-45.09 119.15,-54 126.75,-54 131.14,-54 133.99,-51.02 135.29,-46.64"/>
<polygon fill="black" stroke="black" points="138.77,-47.03 135.6,-36.92 131.78,-46.8 138.77,-47.03"/>
<text text-anchor="middle" x="126.75" y="-57.2" font-family="Times,serif" font-size="14.00">B</text>
</g>
</g>
</svg>
