<?xml version="1.0" encoding="UTF-8" standalone="no"?>
<!DOCTYPE svg PUBLIC "-//W3C//DTD SVG 1.1//EN"
 "http://www.w3.org/Graphics/SVG/1.1/DTD/svg11.dtd">
<!-- Generated by graphviz version 11.0.0 (0)
 -->
<!-- Pages: 1 -->
<svg width="297pt" height="303pt"
 viewBox="0.00 0.00 296.94 303.20" xmlns="http://www.w3.org/2000/svg" xmlns:xlink="http://www.w3.org/1999/xlink">
<g id="graph0" class="graph" transform="scale(1 1) rotate(0) translate(4 299.2)">
<polygon fill="white" stroke="none" points="-4,4 -4,-299.2 292.94,-299.2 292.94,4 -4,4"/>
<!-- S, V(&quot;x&quot;), V(&quot;x&quot;) -->
<g id="node1" class="node">
<title>S, V(&quot;x&quot;), V(&quot;x&quot;)</title>
<path fill="none" stroke="black" d="M250,-295.2C250,-295.2 162,-295.2 162,-295.2 156,-295.2 150,-289.2 150,-283.2 150,-283.2 150,-271.2 150,-271.2 150,-265.2 156,-259.2 162,-259.2 162,-259.2 250,-259.2 250,-259.2 256,-259.2 262,-265.2 262,-271.2 262,-271.2 262,-283.2 262,-283.2 262,-289.2 256,-295.2 250,-295.2"/>
<text text-anchor="middle" x="206" y="-272.15" font-family="Times,serif" font-size="14.00">S, V(&quot;x&quot;), V(&quot;x&quot;)</text>
</g>
<!-- org.parser.sppf.PackedNode@279ad2e3 -->
<g id="node2" class="node">
<title>org.parser.sppf.PackedNode@279ad2e3</title>
<polygon fill="none" stroke="black" points="149.2,-241.2 134.8,-241.2 134.8,-226.8 149.2,-226.8 149.2,-241.2"/>
</g>
<!-- S, V(&quot;x&quot;), V(&quot;x&quot;)&#45;&gt;org.parser.sppf.PackedNode@279ad2e3 -->
<g id="edge9" class="edge">
<title>S, V(&quot;x&quot;), V(&quot;x&quot;)&#45;&gt;org.parser.sppf.PackedNode@279ad2e3</title>
<path fill="none" stroke="black" d="M178.86,-258.73C172.21,-254.45 165.29,-249.99 159.25,-246.11"/>
<polygon fill="black" stroke="black" points="161.19,-243.19 150.89,-240.72 157.4,-249.08 161.19,-243.19"/>
</g>
<!-- org.parser.sppf.PackedNode@58134517 -->
<g id="node4" class="node">
<title>org.parser.sppf.PackedNode@58134517</title>
<polygon fill="none" stroke="black" points="213.2,-241.2 198.8,-241.2 198.8,-226.8 213.2,-226.8 213.2,-241.2"/>
</g>
<!-- S, V(&quot;x&quot;), V(&quot;x&quot;)&#45;&gt;org.parser.sppf.PackedNode@58134517 -->
<g id="edge10" class="edge">
<title>S, V(&quot;x&quot;), V(&quot;x&quot;)&#45;&gt;org.parser.sppf.PackedNode@58134517</title>
<path fill="none" stroke="black" d="M206,-258.97C206,-256.94 206,-254.87 206,-252.84"/>
<polygon fill="black" stroke="black" points="209.5,-253.01 206,-243.01 202.5,-253.01 209.5,-253.01"/>
</g>
<!-- ε, V(&quot;x&quot;) -->
<g id="node3" class="node">
<title>ε, V(&quot;x&quot;)</title>
<polygon fill="none" stroke="black" points="132.5,-208.8 65.5,-208.8 65.5,-172.8 132.5,-172.8 132.5,-208.8"/>
<text text-anchor="middle" x="99" y="-185.75" font-family="Times,serif" font-size="14.00">ε, V(&quot;x&quot;)</text>
</g>
<!-- org.parser.sppf.PackedNode@279ad2e3&#45;&gt;ε, V(&quot;x&quot;) -->
<g id="edge1" class="edge">
<title>org.parser.sppf.PackedNode@279ad2e3&#45;&gt;ε, V(&quot;x&quot;)</title>
<path fill="none" stroke="black" d="M135.28,-226.56C132.44,-223.84 128.93,-220.48 125.23,-216.93"/>
<polygon fill="black" stroke="black" points="127.72,-214.47 118.08,-210.08 122.88,-219.53 127.72,-214.47"/>
</g>
<!-- S a x, V(&quot;x&quot;), V(&quot;x&quot;) -->
<g id="node5" class="node">
<title>S a x, V(&quot;x&quot;), V(&quot;x&quot;)</title>
<path fill="none" stroke="black" d="M260.12,-208.8C260.12,-208.8 151.88,-208.8 151.88,-208.8 145.88,-208.8 139.88,-202.8 139.88,-196.8 139.88,-196.8 139.88,-184.8 139.88,-184.8 139.88,-178.8 145.88,-172.8 151.88,-172.8 151.88,-172.8 260.12,-172.8 260.12,-172.8 266.12,-172.8 272.12,-178.8 272.12,-184.8 272.12,-184.8 272.12,-196.8 272.12,-196.8 272.12,-202.8 266.12,-208.8 260.12,-208.8"/>
<text text-anchor="middle" x="206" y="-185.75" font-family="Times,serif" font-size="14.00">S a x, V(&quot;x&quot;), V(&quot;x&quot;)</text>
</g>
<!-- org.parser.sppf.PackedNode@58134517&#45;&gt;S a x, V(&quot;x&quot;), V(&quot;x&quot;) -->
<g id="edge8" class="edge">
<title>org.parser.sppf.PackedNode@58134517&#45;&gt;S a x, V(&quot;x&quot;), V(&quot;x&quot;)</title>
<path fill="none" stroke="black" d="M206,-226.56C206,-224.72 206,-222.59 206,-220.31"/>
<polygon fill="black" stroke="black" points="209.5,-220.55 206,-210.55 202.5,-220.55 209.5,-220.55"/>
</g>
<!-- org.parser.sppf.PackedNode@4450d156 -->
<g id="node6" class="node">
<title>org.parser.sppf.PackedNode@4450d156</title>
<polygon fill="none" stroke="black" points="210.2,-154.8 195.8,-154.8 195.8,-140.4 210.2,-140.4 210.2,-154.8"/>
</g>
<!-- S a x, V(&quot;x&quot;), V(&quot;x&quot;)&#45;&gt;org.parser.sppf.PackedNode@4450d156 -->
<g id="edge7" class="edge">
<title>S a x, V(&quot;x&quot;), V(&quot;x&quot;)&#45;&gt;org.parser.sppf.PackedNode@4450d156</title>
<path fill="none" stroke="black" d="M204.75,-172.57C204.6,-170.54 204.45,-168.47 204.3,-166.44"/>
<polygon fill="black" stroke="black" points="207.8,-166.33 203.58,-156.61 200.82,-166.84 207.8,-166.33"/>
</g>
<!-- S a, V(&quot;x&quot;), E(&quot;A&quot;) -->
<g id="node7" class="node">
<title>S a, V(&quot;x&quot;), E(&quot;A&quot;)</title>
<path fill="none" stroke="black" d="M112,-122.4C112,-122.4 12,-122.4 12,-122.4 6,-122.4 0,-116.4 0,-110.4 0,-110.4 0,-98.4 0,-98.4 0,-92.4 6,-86.4 12,-86.4 12,-86.4 112,-86.4 112,-86.4 118,-86.4 124,-92.4 124,-98.4 124,-98.4 124,-110.4 124,-110.4 124,-116.4 118,-122.4 112,-122.4"/>
<text text-anchor="middle" x="62" y="-99.35" font-family="Times,serif" font-size="14.00">S a, V(&quot;x&quot;), E(&quot;A&quot;)</text>
</g>
<!-- org.parser.sppf.PackedNode@4450d156&#45;&gt;S a, V(&quot;x&quot;), E(&quot;A&quot;) -->
<g id="edge5" class="edge">
<title>org.parser.sppf.PackedNode@4450d156&#45;&gt;S a, V(&quot;x&quot;), E(&quot;A&quot;)</title>
<path fill="none" stroke="black" d="M195.42,-144.38C183.16,-140.8 157.77,-133.38 132.41,-125.97"/>
<polygon fill="black" stroke="black" points="133.61,-122.68 123.03,-123.23 131.64,-129.4 133.61,-122.68"/>
</g>
<!-- V(&quot;x&quot;), E(&quot;A&quot;), V(&quot;x&quot;) -->
<g id="node10" class="node">
<title>V(&quot;x&quot;), E(&quot;A&quot;), V(&quot;x&quot;)</title>
<polygon fill="none" stroke="black" points="275.12,-122.4 130.88,-122.4 130.88,-86.4 275.12,-86.4 275.12,-122.4"/>
<text text-anchor="middle" x="203" y="-99.35" font-family="Times,serif" font-size="14.00">V(&quot;x&quot;), E(&quot;A&quot;), V(&quot;x&quot;)</text>
</g>
<!-- org.parser.sppf.PackedNode@4450d156&#45;&gt;V(&quot;x&quot;), E(&quot;A&quot;), V(&quot;x&quot;) -->
<g id="edge6" class="edge">
<title>org.parser.sppf.PackedNode@4450d156&#45;&gt;V(&quot;x&quot;), E(&quot;A&quot;), V(&quot;x&quot;)</title>
<path fill="none" stroke="black" d="M203,-140.16C203,-138.32 203,-136.19 203,-133.91"/>
<polygon fill="black" stroke="black" points="206.5,-134.15 203,-124.15 199.5,-134.15 206.5,-134.15"/>
</g>
<!-- org.parser.sppf.PackedNode@4461c7e3 -->
<g id="node8" class="node">
<title>org.parser.sppf.PackedNode@4461c7e3</title>
<polygon fill="none" stroke="black" points="181.2,-68.4 166.8,-68.4 166.8,-54 181.2,-54 181.2,-68.4"/>
</g>
<!-- S a, V(&quot;x&quot;), E(&quot;A&quot;)&#45;&gt;org.parser.sppf.PackedNode@4461c7e3 -->
<g id="edge4" class="edge">
<title>S a, V(&quot;x&quot;), E(&quot;A&quot;)&#45;&gt;org.parser.sppf.PackedNode@4461c7e3</title>
<path fill="none" stroke="black" d="M109.5,-85.93C125.77,-79.94 143.03,-73.59 155.6,-68.97"/>
<polygon fill="black" stroke="black" points="156.79,-72.26 164.97,-65.52 154.37,-65.69 156.79,-72.26"/>
</g>
<!-- org.parser.sppf.PackedNode@4461c7e3&#45;&gt;S, V(&quot;x&quot;), V(&quot;x&quot;) -->
<g id="edge2" class="edge">
<title>org.parser.sppf.PackedNode@4461c7e3&#45;&gt;S, V(&quot;x&quot;), V(&quot;x&quot;)</title>
<path fill="none" stroke="black" d="M181.6,-62.87C203.32,-64.94 264.92,-71.99 278,-86.4 296.14,-106.38 286,-119.61 286,-146.6 286,-191.8 286,-191.8 286,-191.8 286,-217.07 266.87,-237.81 247.32,-252.4"/>
<polygon fill="black" stroke="black" points="245.51,-249.4 239.32,-258 249.52,-255.14 245.51,-249.4"/>
</g>
<!-- E(&quot;A&quot;), V(&quot;x&quot;), E(&quot;A&quot;) -->
<g id="node9" class="node">
<title>E(&quot;A&quot;), V(&quot;x&quot;), E(&quot;A&quot;)</title>
<polygon fill="none" stroke="black" points="246.88,-36 101.12,-36 101.12,0 246.88,0 246.88,-36"/>
<text text-anchor="middle" x="174" y="-12.95" font-family="Times,serif" font-size="14.00">E(&quot;A&quot;), V(&quot;x&quot;), E(&quot;A&quot;)</text>
</g>
<!-- org.parser.sppf.PackedNode@4461c7e3&#45;&gt;E(&quot;A&quot;), V(&quot;x&quot;), E(&quot;A&quot;) -->
<g id="edge3" class="edge">
<title>org.parser.sppf.PackedNode@4461c7e3&#45;&gt;E(&quot;A&quot;), V(&quot;x&quot;), E(&quot;A&quot;)</title>
<path fill="none" stroke="black" d="M174,-53.76C174,-51.92 174,-49.79 174,-47.51"/>
<polygon fill="black" stroke="black" points="177.5,-47.75 174,-37.75 170.5,-47.75 177.5,-47.75"/>
</g>
</g>
</svg>
